# xmcd
#
# Track frame offsets: 
#        150
#        15497
#        25716
#        41214
#        55909
#        74761
#        90726
#        104814
#        122101
#        143136
#        160224
#        175016
#        192701
#        207441
#
# Disc length: 3018 seconds
#
# Revision: 0
# Processed by: cddbd v1.5.1PL0 Copyright (c) Steve Scherf et al.
# Submitted via: ExactAudioCopy v0.95a5
#
DISCID=d10bc80e
DTITLE=Norah Jones - 
DYEAR=1900
DGENRE=
TTITLE0=Sunrise
TTITLE1=What Am I To You
TTITLE2=Those Sweat Words
TTITLE3=Comival Town
TTITLE4=In the Morning
TTITLE5=Be Here To Love Me
TTITLE6=Creepin'In
TTITLE7=Toes
TTITLE8=Humble Me
TTITLE9=Above Ground
TTITLE10=The long Way Home
TTITLE11=The Prettiest Thing
TTITLE12=Don't Miss You At All
TTITLE13=Sleepless Nights
EXTD=
EXTT0=
EXTT1=
EXTT2=
EXTT3=
EXTT4=
EXTT5=
EXTT6=
EXTT7=
EXTT8=
EXTT9=
EXTT10=
EXTT11=
EXTT12=
EXTT13=
PLAYORDER=
